
        <svg xmlns="http://www.w3.org/2000/svg" xmlns:xlink="http://www.w3.org/1999/xlink" version="1.1" width="3146.2867344707" 
        height="531.8581913754729" viewBox="0 0 3146.2867344707 531.8581913754729">
			
			<g transform="scale(7.314336723535014) translate(10, 10)">
				<defs id="SvgjsDefs1383"></defs><g id="SvgjsG1384" featureKey="nameLeftFeature-0" transform="matrix(0.8392815304260938,0,0,0.8392815304260938,-2.685700737283252,6.4607419792279055)" fill="#af002a"><path d="M24.96 7.039999999999999 c1.52 0 1.76 0.88 1.76 1.4 l0 19.04 c0 2.24 -0.2 4.16 -0.52 5.72 c-0.36 1.6 -0.96 2.92 -1.72 3.96 c-0.8 1 -1.88 1.76 -3.12 2.2 s-2.76 0.68 -4.52 0.68 l-12.52 0 c-0.32 0 -1.12 -0.16 -1.12 -1.4 l0 -3.16 c0 -1.24 0.8 -1.4 1.12 -1.4 l12.36 0 c0.84 0 1.52 -0.08 2.04 -0.28 c0.52 -0.16 0.92 -0.44 1.2 -0.88 c0.32 -0.4 0.52 -1 0.64 -1.76 c0.16 -0.8 0.2 -1.8 0.2 -3 l0 -15.12 c0 -0.04 -9.64 -0.08 -9.64 -0.08 c-0.36 0 -1.16 -0.12 -1.16 -1.36 l0 -3.16 c0 -1.28 0.8 -1.4 1.16 -1.4 l13.84 0 z M57.689 10.760000000000002 l11.24 27.72 c0.16 0.36 0.2 0.72 0.12 0.96 c-0.08 0.2 -0.24 0.6 -0.88 0.6 l-4.28 0 c-0.56 0 -0.96 -0.32 -1.16 -0.88 l-9.92 -24.76 l-0.04 -0.08 l-0.16 0 s-0.04 0.04 -0.08 0.12 l-5.12 12.96 l4.96 0 c0.52 0 0.96 0.32 1.16 0.8 l1.44 3.56 c0.12 0.4 0.08 0.84 -0.16 1.16 c-0.2 0.36 -0.6 0.56 -1.04 0.56 l-8.76 0 l-2.28 5.72 c-0.2 0.52 -0.6 0.84 -1.12 0.84 l-4.4 0 c-0.64 0 -0.84 -0.36 -0.88 -0.6 c-0.08 -0.24 -0.04 -0.6 0.08 -0.96 l11.16 -27.72 c0.56 -1.44 1.16 -2.4 1.76 -2.92 c0.16 -0.12 0.36 -0.28 0.6 -0.4 c0.8 -0.56 1.76 -0.84 2.76 -0.84 c2.2 0 4.12 1.48 4.76 3.56 z M112.05799999999999 7.039999999999999 c1.32 0 2.24 0.44 2.72 1.28 c0.44 0.76 0.64 2.04 0.64 3.88 l0 26.44 c0 1.24 -0.8 1.4 -1.16 1.4 l-3.44 0 c-0.32 0 -1.12 -0.16 -1.12 -1.4 l0 -24.12 l-0.2 0 c-0.04 0 -0.08 0 -0.08 0.08 l-6.88 16.96 c-0.28 0.84 -0.56 1.56 -0.84 2.16 s-0.64 1.08 -0.96 1.48 c-0.36 0.4 -0.8 0.72 -1.28 0.88 c-0.44 0.16 -1 0.24 -1.6 0.24 l-1.64 0 c-0.6 0 -1.12 -0.08 -1.6 -0.24 s-0.88 -0.48 -1.28 -0.88 c-0.32 -0.4 -0.64 -0.88 -0.96 -1.48 c-0.28 -0.6 -0.56 -1.32 -0.84 -2.16 l-6.84 -16.92 c-0.04 -0.12 -0.08 -0.12 -0.12 -0.12 l-0.2 0 l0 24.12 c0 1.24 -0.76 1.4 -1.12 1.4 l-3.44 0 c-0.36 0 -1.16 -0.16 -1.16 -1.4 l0 -26.44 c0 -1.84 0.2 -3.12 0.64 -3.88 c0.48 -0.84 1.4 -1.28 2.76 -1.28 l3.68 0 c0.52 0 1 0.04 1.4 0.16 s0.8 0.32 1.12 0.6 c0.28 0.32 0.56 0.68 0.8 1.16 c0.2 0.48 0.44 1.08 0.68 1.84 l7.04 17.68 c0.04 0.16 0.12 0.16 0.12 0.16 l0.4 0 c0.04 0 0.08 0 0.12 -0.16 l7.08 -17.68 c0.24 -0.76 0.44 -1.36 0.68 -1.84 s0.52 -0.84 0.8 -1.16 c0.32 -0.28 0.68 -0.48 1.08 -0.6 s0.84 -0.16 1.4 -0.16 l3.6 0 z M148.987 32.84 c0.36 0 1.16 0.12 1.16 1.36 l0 4.4 c0 1.24 -0.8 1.36 -1.16 1.36 l-14.2 0 c-1.76 0 -3.24 -0.2 -4.48 -0.68 c-1.28 -0.44 -2.32 -1.16 -3.12 -2.2 c-0.76 -1 -1.36 -2.32 -1.72 -3.92 c-0.28 -1.32 -0.48 -2.92 -0.52 -4.8 l0 -0.2 l0.08 -5.04 c0.08 -0.36 0.24 -0.68 0.44 -1 c0.56 -1 1.56 -1.6 2.72 -1.68 l20.64 -0.04 c0.32 0 1.12 0.12 1.12 1.36 l0 3.16 c0 1.24 -0.8 1.4 -1.12 1.4 l-17.88 0 c-0.04 0 -0.08 2.88 -0.08 2.88 l0.08 0.68 c0.12 0.76 0.36 1.36 0.68 1.8 c0.32 0.4 0.68 0.68 1.2 0.88 c0.56 0.16 1.24 0.28 2.08 0.28 l14.08 0 z M149.027 6.960000000000001 c0.32 0 1.12 0.16 1.12 1.4 l0 3.16 c0 1.24 -0.8 1.4 -1.12 1.4 l-23 -0.04 c-0.32 0 -1.08 -0.12 -1.08 -1.36 l0 -3.12 c0 -1.28 0.76 -1.44 1.08 -1.44 l23 0 z M178.996 20.32 c2.08 0 3.68 0.76 4.76 2.2 c1.04 1.44 1.56 3.48 1.56 6.08 l0 3.52 c0 2.32 -0.52 4.2 -1.52 5.64 c-1.04 1.48 -2.68 2.24 -4.88 2.24 l-18.04 0 c-0.36 0 -1.16 -0.12 -1.16 -1.36 l0 -3.2 c0 -1.24 0.8 -1.36 1.16 -1.36 l17.08 0 c0.68 0 0.92 -0.28 1.08 -0.52 c0.24 -0.4 0.36 -0.96 0.36 -1.68 l0 -3.44 c0 -1.96 -0.8 -2.2 -1.4 -2.2 l-12 0 c-1.68 0 -3.52 -0.24 -4.76 -1.88 c-1 -1.4 -1.56 -3.64 -1.56 -6.4 l0 -3.04 c0 -2.32 0.52 -4.24 1.56 -5.68 c1.04 -1.48 2.64 -2.2 4.84 -2.2 l17.24 0 c0.32 0 1.12 0.12 1.12 1.36 l0 3.2 c0 1.24 -0.8 1.36 -1.12 1.36 l-16.28 0 c-0.68 0 -0.92 0.28 -1.08 0.52 c-0.2 0.4 -0.32 0.96 -0.32 1.68 l0 2.96 c0 1.96 0.76 2.2 1.36 2.2 l12 0 z"></path></g><g id="SvgjsG1385" featureKey="inlineSymbolFeature-0" transform="matrix(2.1964366665454467,0,0,2.1964366665454467,166.41069000036367,-6.58930999963634)" fill="#af002a"><title xmlns="http://www.w3.org/2000/svg">interface_033-code-html-window-application</title><desc xmlns="http://www.w3.org/2000/svg">Created with Sketch.</desc><g xmlns="http://www.w3.org/2000/svg" stroke="none" stroke-width="1" fill="none" fill-rule="evenodd" xmlns:sketch="http://www.bohemiancoding.com/sketch/ns" sketch:type="MSPage"><g sketch:type="MSArtboardGroup" transform="translate(-405.000000, -135.000000)" fill="#af002a"><path d="M408,138 L433,138 L433,161 L408,161 L408,138 Z M409,139 L432,139 L432,142 L409,142 L409,139 Z M409,143 L432,143 L432,160 L409,160 L409,143 Z M410,140 L411,140 L411,141 L410,141 L410,140 Z M412,140 L413,140 L413,141 L412,141 L412,140 Z M414,140 L415,140 L415,141 L414,141 L414,140 Z M418.001325,148.427523 L418.708432,149.13463 L417.294218,150.548843 L418.708432,151.963057 L418.001325,152.670164 L415.880005,150.548843 L418.001325,148.427523 Z M423.001325,148.427523 L422.294218,149.13463 L423.708432,150.548843 L422.294218,151.963057 L423.001325,152.670164 L425.122646,150.548843 L423.001325,148.427523 Z M420.438248,148 L421.423056,148.173648 L420.554815,153.097687 L419.570007,152.924039 L420.438248,148 Z" sketch:type="MSShapeGroup"></path></g></g></g><g id="SvgjsG1386" featureKey="nameRightFeature-0" transform="matrix(0.8392815304260938,0,0,0.8392815304260938,225.43256058040092,6.4607419792279055)" fill="#af002a"><path d="M54.209 14.48 c0.4 1.68 0.6 3.68 0.6 5.92 l0 6.28 c0 2.24 -0.2 4.24 -0.6 5.92 s-1.08 3.08 -1.92 4.16 c-0.88 1.12 -2.04 1.96 -3.4 2.48 c-1.32 0.52 -2.96 0.8 -4.84 0.8 l-13.68 0 c-1.24 0 -2.4 -0.64 -3.04 -1.72 c-0.2 -0.36 -0.36 -0.8 -0.44 -1.24 l0.04 -27.32 c0.08 -0.32 0.24 -0.68 0.4 -1 c0.6 -0.96 1.6 -1.6 2.76 -1.68 l0 -0.04 l13.96 0 c1.88 0 3.48 0.28 4.84 0.8 s2.52 1.36 3.4 2.44 c0.84 1.12 1.52 2.52 1.92 4.2 z M32.769 33.88 c0 0.16 0.04 0.2 0.04 0.2 l11.12 0 c0.92 0 1.72 -0.08 2.36 -0.32 s1.12 -0.6 1.48 -1.08 c0.4 -0.52 0.68 -1.2 0.84 -2.08 s0.28 -2 0.28 -3.32 l0 -7.48 c0 -1.32 -0.12 -2.44 -0.28 -3.36 c-0.16 -0.84 -0.44 -1.52 -0.84 -2.04 c-0.36 -0.52 -0.84 -0.84 -1.48 -1.08 s-1.44 -0.36 -2.36 -0.36 l-11.08 0 c-0.04 0 -0.08 0.08 -0.08 0.24 l0 20.68 z M85.77799999999999 10.760000000000002 l11.24 27.72 c0.16 0.36 0.2 0.72 0.12 0.96 c-0.08 0.2 -0.24 0.6 -0.88 0.6 l-4.28 0 c-0.56 0 -0.96 -0.32 -1.16 -0.88 l-9.92 -24.76 l-0.04 -0.08 l-0.16 0 s-0.04 0.04 -0.08 0.12 l-5.12 12.96 l4.96 0 c0.52 0 0.96 0.32 1.16 0.8 l1.44 3.56 c0.12 0.4 0.08 0.84 -0.16 1.16 c-0.2 0.36 -0.6 0.56 -1.04 0.56 l-8.76 0 l-2.28 5.72 c-0.2 0.52 -0.6 0.84 -1.12 0.84 l-4.4 0 c-0.64 0 -0.84 -0.36 -0.88 -0.6 c-0.08 -0.24 -0.04 -0.6 0.08 -0.96 l11.16 -27.72 c0.56 -1.44 1.16 -2.4 1.76 -2.92 c0.16 -0.12 0.36 -0.28 0.6 -0.4 c0.8 -0.56 1.76 -0.84 2.76 -0.84 c2.2 0 4.12 1.48 4.76 3.56 z M135.067 7.039999999999999 c0.32 0 1.12 0.12 1.12 1.4 l0 26.44 c0 1.96 -0.28 3.28 -0.84 4 c-0.56 0.76 -1.44 1.16 -2.6 1.16 l-2.92 0 c-0.56 0 -1 -0.04 -1.36 -0.12 c-0.4 -0.08 -0.76 -0.2 -1.08 -0.44 c-0.32 -0.2 -0.6 -0.48 -0.88 -0.88 c-0.28 -0.36 -0.6 -0.84 -0.92 -1.48 l-12.68 -22.48 c-0.08 -0.12 -0.12 -0.12 -0.12 -0.12 l-0.2 0 l0 24.12 c0 1.24 -0.76 1.4 -1.12 1.4 l-3.56 0 c-0.36 0 -1.16 -0.16 -1.16 -1.4 l0 -26.44 c0 -1.96 0.28 -3.28 0.84 -4.04 c0.56 -0.72 1.44 -1.12 2.6 -1.12 l3 0 c0.52 0 1 0.04 1.4 0.08 c0.44 0.08 0.8 0.24 1.12 0.48 c0.28 0.2 0.56 0.52 0.84 0.92 c0.28 0.36 0.56 0.84 0.88 1.44 l12.64 22.48 c0.04 0.12 0.08 0.12 0.12 0.12 l0.2 0 l0 -24.12 c0 -1.28 0.76 -1.4 1.12 -1.4 l3.56 0 z M150.516 7.039999999999999 c0.32 0 1.12 0.16 1.12 1.4 l0 30.2 c0 1.24 -0.8 1.4 -1.12 1.4 l-3.68 0 c-0.32 0 -1.12 -0.16 -1.12 -1.4 l0 -30.2 c0 -1.24 0.8 -1.4 1.12 -1.4 l3.68 0 z M185.205 32.84 c0.36 0 1.16 0.12 1.16 1.36 l0 4.4 c0 1.24 -0.8 1.36 -1.16 1.36 l-14.2 0 c-1.76 0 -3.24 -0.2 -4.48 -0.68 c-1.28 -0.44 -2.32 -1.16 -3.12 -2.2 c-0.76 -1 -1.36 -2.32 -1.72 -3.92 c-0.28 -1.32 -0.48 -2.92 -0.52 -4.8 l0 -0.2 l0.08 -5.04 c0.08 -0.36 0.24 -0.68 0.44 -1 c0.56 -1 1.56 -1.6 2.72 -1.68 l20.64 -0.04 c0.32 0 1.12 0.12 1.12 1.36 l0 3.16 c0 1.24 -0.8 1.4 -1.12 1.4 l-17.88 0 c-0.04 0 -0.08 2.88 -0.08 2.88 l0.08 0.68 c0.12 0.76 0.36 1.36 0.68 1.8 c0.32 0.4 0.68 0.68 1.2 0.88 c0.56 0.16 1.24 0.28 2.08 0.28 l14.08 0 z M185.245 6.960000000000001 c0.32 0 1.12 0.16 1.12 1.4 l0 3.16 c0 1.24 -0.8 1.4 -1.12 1.4 l-23 -0.04 c-0.32 0 -1.08 -0.12 -1.08 -1.36 l0 -3.12 c0 -1.28 0.76 -1.44 1.08 -1.44 l23 0 z M218.97400000000002 34.08 c0.36 0 1.12 0.16 1.12 1.4 l0 3.16 c0 1.24 -0.76 1.4 -1.12 1.4 l-13.2 0 c-1.76 0 -3.28 -0.24 -4.48 -0.68 c-1.28 -0.44 -2.32 -1.2 -3.12 -2.24 c-0.8 -1 -1.36 -2.32 -1.72 -3.92 c-0.36 -1.56 -0.56 -3.48 -0.56 -5.72 l0 -19.04 c0 -1.28 0.8 -1.4 1.16 -1.4 l3.68 0 c0.32 0 1.12 0.12 1.12 1.4 l0 19.72 c0 1.2 0.04 2.2 0.2 3 c0.12 0.72 0.36 1.32 0.68 1.76 c0.28 0.44 0.68 0.72 1.16 0.88 c0.56 0.2 1.24 0.28 2.08 0.28 l13 0 z"></path></g>
			</g>
		</svg>
	